<?xml version="1.0" encoding="UTF-8"?>
<!DOCTYPE svg PUBLIC "-//W3C//DTD SVG 1.1//EN" "http://www.w3.org/Graphics/SVG/1.1/DTD/svg11.dtd">
<svg xmlns="http://www.w3.org/2000/svg" xml:space="preserve" width="100%" height="100%" version="1.1" style="shape-rendering:geometricPrecision; text-rendering:geometricPrecision; image-rendering:optimizeQuality; fill-rule:evenodd; clip-rule:evenodd"
viewBox="0 0 10819.99 10820.51"
 xmlns:xlink="http://www.w3.org/1999/xlink">
 <defs>
  <style type="text/css">
   <![CDATA[
    .fil1 {fill:white}
    .fil0 {fill:#c11d1d;fill-rule:nonzero}
   ]]>
  </style>
 </defs>
 <g id="Layer_x0020_1">
  <polygon class="fil0" points="-0,10820.51 10819.99,9482.3 10819.99,0 -0,1332.29 "/>
  <g id="_2507221204880">
   <polygon class="fil1" points="6681.61,4805.99 6681.07,4805.99 6378.68,4805.99 6229.26,4805.99 6228.78,4805.99 5870.03,4805.99 5870.03,5090.23 5998.07,5090.23 5544.86,5958.16 5928.44,5958.16 6379.72,5094.06 6530.6,5094.06 6981.88,5958.16 6989.64,5958.16 6989.64,5958.18 7387.52,5958.18 6782.83,4805.99 "/>
   <path class="fil1" d="M1907.33 5093.34c-56,0 -101.37,43.46 -101.37,97.06l0 339.19c0,53.63 45.37,97.07 101.37,97.07l1268.85 0 0 330.8 -1467.82 0c-167.09,0 -302.59,-129.7 -302.59,-289.7 -4.22,-4.03 0,-572.73 0,-572.73 0,-160.01 135.5,-289.73 302.59,-289.73l1467.27 0 0.55 0 0 288.04 -0.55 0 -1268.3 0z"/>
   <polygon class="fil1" points="4826.45,4805.99 3916.62,5670.11 3916.62,5087.54 4120.2,5087.54 4120.17,4805.99 3508.19,4805.99 3508.19,5958.16 4071.38,5958.16 4949.55,5096.65 4949.55,5958.16 5349.7,5958.16 5349.7,4805.99 "/>
   <path class="fil1" d="M8938.46 5958.19l397.87 0 0 -0.09 -604.67 -1152.1 -101.22 0 -0.59 0 -302.33 0 -141.91 0 -358.77 0 0 284.24 120.07 0 -453.27 867.92 383.61 0 75.32 -144.18 902.8 0 75.32 144.18 7.74 0 0.03 0.03zm-835.51 -432.26l225.55 -431.86 150.94 0 225.53 431.86 -602.02 0z"/>
  </g>
 </g>
</svg>
